name Walk8.mot
datacolumns 19
datarows 10
range 1.84500000 1.89000000
endheader

                time	   L_ground_force_vx	   L_ground_force_vy	   L_ground_force_vz	   L_ground_force_px	   L_ground_force_py	   L_ground_force_pz	   R_ground_force_vx	   R_ground_force_vy	   R_ground_force_vz	   R_ground_force_px	   R_ground_force_py	   R_ground_force_pz	   L_ground_torque_x	   L_ground_torque_y	   L_ground_torque_z	   R_ground_torque_x	   R_ground_torque_y	   R_ground_torque_z	
          1.84500000	         -0.00000000	         -0.00000001	          0.00000000	          0.00000000	          0.00000000	          0.00000000	         -1.22896667	         -5.26038403	          0.04416422	          0.03412701	          0.00000000	          0.00358330	          0.00000000	         -0.00000000	          0.00000000	          0.00000000	          0.28340481	          0.00000000	
          1.85000000	         -0.00000000	         -0.00000001	          0.00000000	          0.00000000	          0.00000000	          0.00000000	         -1.25622694	         -5.43549034	         -0.06158273	          0.01071498	          0.00000000	          0.00095989	          0.00000000	         -0.00000000	          0.00000000	          0.00000000	          0.27724822	          0.00000000	
          1.85500000	         -0.00000000	         -0.00000000	          0.00000000	          0.00000000	          0.00000000	          0.00000000	         -1.17435605	         -5.11790106	         -0.12452575	         -0.00514612	          0.00000000	         -0.00079837	          0.00000000	         -0.00000000	          0.00000000	          0.00000000	          0.25137313	          0.00000000	
          1.86000000	         -0.00000000	         -0.00000000	          0.00000000	          0.00000000	          0.00000000	          0.00000000	         -1.02897648	         -4.50947312	         -0.15504141	         -0.01491055	          0.00000000	         -0.00186276	          0.00000000	         -0.00000000	          0.00000000	          0.00000000	          0.21489937	          0.00000000	
          1.86500000	          0.00000000	          0.00000000	          0.00000000	          0.00000000	          0.00000000	          0.00000000	         -0.85436778	         -3.76265526	         -0.16234861	         -0.01999304	          0.00000000	         -0.00239802	          0.00000000	         -0.00000000	          0.00000000	          0.00000000	          0.17451351	          0.00000000	
          1.87000000	          0.00000000	          0.00000000	          0.00000000	          0.00000000	          0.00000000	          0.00000000	         -0.67482444	         -2.98615491	         -0.15419476	         -0.02167113	          0.00000000	         -0.00255161	          0.00000000	          0.00000000	          0.00000000	          0.00000000	          0.13481293	          0.00000000	
          1.87500000	          0.00000000	          0.00000000	         -0.00000000	          0.00000000	          0.00000000	          0.00000000	         -0.50631632	         -2.25203152	         -0.13677092	         -0.02103334	          0.00000000	         -0.00244831	          0.00000000	          0.00000000	          0.00000000	          0.00000000	          0.09869164	          0.00000000	
          1.88000000	          0.00000000	          0.00000000	         -0.00000000	          0.00000000	          0.00000000	          0.00000000	         -0.35821183	         -1.60314395	         -0.11478042	         -0.01896085	          0.00000000	         -0.00218843	          0.00000000	          0.00000000	          0.00000000	          0.00000000	          0.06772245	          0.00000000	
          1.88500000	          0.00000000	          0.00000000	         -0.00000000	         -0.00000000	          0.00000000	         -0.00000000	         -0.23490506	         -1.06023562	         -0.09160059	         -0.01613223	          0.00000000	         -0.00184869	          0.00000000	          0.00000000	          0.00000000	          0.00000000	          0.04250648	          0.00000000	
          1.89000000	          0.00000000	          0.00000000	         -0.00000000	         -0.00000000	          0.00000000	         -0.00000000	         -0.13725267	         -0.62822721	         -0.06949132	         -0.01304243	          0.00000000	         -0.00148462	          0.00000000	          0.00000000	          0.00000000	          0.00000000	          0.02297421	          0.00000000	
